<svg xmlns="http://www.w3.org/2000/svg" width="68" height="129"><path fill="#fbc7b6" d="M33 0c2.938 2.375 2.938 2.375 5 5v2l3.25.188C45 8 45 8 47.196 10.138c2.154 3.417 2.34 5.46 2.413 9.475l.098 3.78.043 3.92.09 3.978q.105 4.854.16 9.709l1.313-2.875C53 35 53 35 56 33c3.55-.323 6.097-.404 9.375 1.063C67.783 36.933 67.771 39.295 68 43c-1.016 3.362-1.016 3.362-2.605 6.816l-.85 1.878q-.89 1.953-1.804 3.895a450 450 0 0 0-2.72 5.917c-6.58 14.355-6.58 14.355-10.618 17.893-1.822 2.079-1.796 3.243-1.835 5.98l-.06 2.67-.02 2.869-.054 2.947c-.054 3.107-.088 6.215-.121 9.323q-.05 3.159-.104 6.318Q47.083 117.252 47 125c-1.875 1.063-1.875 1.063-4 2l-2-1v-2H16l-2 4-4-1 .002-1.713c.003-5.889-.036-11.777-.1-17.666a676 676 0 0 1-.022-6.59c.003-3.161-.033-6.32-.075-9.48l.027-2.971c.003-4.982.003-4.982-2.173-9.28C5.867 77.762 5.867 77.762 3 76 .37 72.465.736 68.55.812 64.312l.002-2.087C.86 57.14.86 57.14 2 56q.552-3.492 1-7H1a937 937 0 0 1-.25-12.25l-.102-3.512L.61 29.86l-.063-3.11C1.12 23.269 2.218 22.106 5 20c3.25-.25 3.25-.25 6 0l-.25-3.188C11 13 11 13 12.563 10.125 15.662 7.423 17.958 7.233 22 7l.313-1.813C24.075-.425 27.463-.763 33 0"/><path fill="#080606" d="M33 0c2.938 2.375 2.938 2.375 5 5v2l3.25.188C45 8 45 8 47.196 10.138c2.154 3.417 2.34 5.46 2.413 9.475l.098 3.78.043 3.92.09 3.978q.105 4.854.16 9.709l1.313-2.875C53 35 53 35 56 33c3.55-.323 6.097-.404 9.375 1.063C67.783 36.933 67.771 39.295 68 43c-1.016 3.362-1.016 3.362-2.605 6.816l-.85 1.878q-.89 1.953-1.804 3.895a450 450 0 0 0-2.72 5.917c-6.58 14.355-6.58 14.355-10.618 17.893-1.822 2.079-1.796 3.243-1.835 5.98l-.06 2.67-.02 2.869-.054 2.947c-.054 3.107-.088 6.215-.121 9.323q-.05 3.159-.104 6.318Q47.083 117.252 47 125c-1.875 1.063-1.875 1.063-4 2l-2-1c-.178-6.726-.3-13.45-.385-20.178a616 616 0 0 0-.144-6.861 599 599 0 0 1-.156-9.875c-.035-1.019-.07-2.038-.108-3.088-.004-7.04-.004-7.04 2.274-9.78a76 76 0 0 1 3.764-2.852c2.81-2.187 3.873-4.942 5.282-8.155l.845-1.896a331 331 0 0 0 1.71-3.938 409 409 0 0 1 2.638-6.01C59.93 46.452 59.93 46.452 61 39h-3l-.719 1.636q-1.606 3.652-3.218 7.301l-1.131 2.577-1.084 2.45-1 2.27C50 57 50 57 49 58c-2.512.455-5.03.835-7.555 1.207C38.41 60.191 37.6 61.285 36 64a100 100 0 0 0-2 6l-4-1c-.507-5.319.674-7.865 4-12 4.21-4 4.21-4 9-4V13l-4 1-1 27-5 1-1-35-5-1v36l-5-1-1-27h-3l-1 33-5 1c-1.175-2.35-1.2-3.95-1.316-6.57l-.127-2.715-.12-2.84-.13-2.863Q10.147 29.506 10 26H7L6 48l-5 1a937 937 0 0 1-.25-12.25l-.102-3.512L.61 29.86l-.063-3.11C1.12 23.269 2.218 22.106 5 20c3.25-.25 3.25-.25 6 0l-.25-3.188C11 13 11 13 12.563 10.125 15.662 7.423 17.958 7.233 22 7l.313-1.813C24.075-.425 27.463-.763 33 0"/><path fill="#010000" d="M2 56c1.969.672 1.969.672 4 2 .469 2.39.469 2.39.5 5.25.282 5 1.058 7.914 4.5 11.75l4 2 1 49-4 2-2-1 .002-1.713c.003-5.889-.036-11.777-.1-17.666a676 676 0 0 1-.022-6.59c.003-3.161-.033-6.32-.075-9.48l.027-2.971c.003-4.982.003-4.982-2.173-9.28C5.867 77.762 5.867 77.762 3 76 .37 72.465.736 68.55.812 64.312l.002-2.087C.86 57.14.86 57.14 2 56"/></svg>