<svg xmlns="http://www.w3.org/2000/svg" width="56" height="125"><path fill="#fcc7b6" d="m30.063-.5 3.876-.008C44.511-.397 44.511-.397 48 3c.804 2.695.814 5.166 1 8l2.375.75c3.11 1.481 3.46 2.087 4.625 5.25.46 4.738.37 9.492.375 14.25l.074 3.934c.025 8.18-.344 14.184-5.96 20.52C49 57 49 57 47 57l.045 2.454q.207 11.433.398 22.867.098 5.88.205 11.757.104 5.67.195 11.34.036 2.167.078 4.333.056 3.028.1 6.055l.061 3.486C48 122 48 122 47 124H12c-1.487-5.205-2.248-8.063-2.24-13.147l-.01-3.539.012-3.763-.036-5.913q-.045-7.257-.031-14.513a811 811 0 0 0-.026-8.173q-.032-3.841-.001-7.683l-.04-3.51-.002-3.085C8.776 57.043 6.986 56.1 4 54 .766 49.105.545 44.914.566 39.242l-.015-2.501q-.01-2.605.003-5.21c.008-2.655-.02-5.309-.052-7.965q-.003-2.536.002-5.074L.47 16.093c.045-3.578.224-5.679 2.377-8.596C5 6 5 6 7.937 5.562c3.265-.235 3.265-.235 4.876-3.066C17.123-2.029 24.325-.628 30.063-.5"/><path fill="#080605" d="m30.063-.5 3.876-.008C44.511-.397 44.511-.397 48 3c.804 2.695.814 5.166 1 8l2.375.75c3.11 1.481 3.46 2.087 4.625 5.25.46 4.738.37 9.492.375 14.25l.074 3.934c.025 8.18-.344 14.184-5.96 20.52C49 57 49 57 47 57l.045 2.454q.207 11.433.398 22.867.098 5.88.205 11.757.104 5.67.195 11.34.036 2.167.078 4.333.056 3.028.1 6.055l.061 3.486C48 122 48 122 47 124l-5-1a6801 6801 0 0 1-.81-35.576 890 890 0 0 0-.502-16.736q-.096-3.313-.188-6.626l-.166-2.964c-.123-6.261-.123-6.261 2.225-8.75 1.91-1.352 1.91-1.352 3.83-2.413 1.794-.844 1.794-.844 2.611-2.935.086-2.251.107-4.505.098-6.758l-.005-2.01c-.005-2.118-.018-4.238-.03-6.357q-.008-2.154-.014-4.309c-.01-3.522-.03-7.044-.049-10.566H28v3l3.21.148 4.165.227c.699.03 1.397.062 2.117.094 5.281.304 5.281.304 7.508 2.531.756 3.446.803 6.561 0 10-1.851 1.92-3.755 3.152-6.02 4.55-3.13 2.291-3.82 4.825-4.98 8.45l-4-1c-.623-5.106.662-7.549 3.613-11.484C35 32 35 32 38 30l1-3-2.23.035-2.958.027-2.917.036C28 27 28 27 25.328 26.465c-2.97-.593-5.36.03-8.328.535a93 93 0 0 1-4-1 348 348 0 0 0-7 0c.081 3.23.194 6.458.313 9.688l.068 2.763C6.619 45.244 6.619 45.244 10 51l2.56 1.028C15 54 15 54 15.498 55.893c.23 2.579.295 5.12.31 7.709l.074 2.941c.069 3.153.098 6.304.118 9.457l.033 3.155c.071 7.407.06 14.813.03 22.22q-.009 3.318-.014 6.637Q16.032 116.007 16 124l-5-1a64 64 0 0 1-1.126-12.034l-.012-3.539-.003-3.779q-.027-3.976-.058-7.953c-.03-4.172-.053-8.343-.051-12.515q.001-4.094-.04-8.186a496 496 0 0 1-.017-7.7l-.05-3.52-.01-3.093C8.775 57.047 6.99 56.102 4 54 .766 49.105.545 44.914.566 39.242l-.015-2.501q-.01-2.605.003-5.21c.008-2.655-.02-5.309-.052-7.965q-.003-2.536.002-5.074L.47 16.093c.045-3.578.224-5.679 2.377-8.596C5 6 5 6 7.937 5.562c3.265-.235 3.265-.235 4.876-3.066C17.123-2.029 24.325-.628 30.063-.5"/><path fill="#f1b4a1" d="m18 5 4 1v15h-5q-.04-3.719-.063-7.438l-.025-2.142c-.009-1.807.036-3.614.088-5.42Z"/><path fill="#f3b6a2" d="m7 11 4 1v9l-5-1c-.098-6.152-.098-6.152 0-8Z"/><path fill="#e2a997" d="m29 5 4 2v4h-6c.875-4.875.875-4.875 2-6"/><path fill="#ebb09d" d="M39 5c2.063.438 2.063.438 4 1v5h-5a100 100 0 0 1 0-5Z"/></svg>