<svg xmlns="http://www.w3.org/2000/svg" width="55" height="126"><path fill="#060404" d="M26-.566C28.956.27 30.12 1.586 32 4c1.047 3.234 1.047 3.234 1.75 6.75l.734 3.547L35 17l.953-2.957 1.297-3.855.621-1.948C39.204 4.343 40.315 1.975 44 0c3.688-.55 5.532-.234 8.875 1.438 2.562 3.09 2.481 5.032 2.387 8.952-.474 4.723-1.865 9.152-3.262 13.673l-.867 2.912Q50.083 30.492 49 34l1.875.813C53 36 53 36 55 39c.387 4.071.33 8.144.316 12.232-.003 1.997.02 3.994.045 5.99C55.368 69.45 55.368 69.45 52 75l-2.625 2.125c-3.384 4.097-3.025 7.823-3.137 13.012C46 93 46 93 44 95c-.333 3.5-.333 3.5 0 7l2 2c.227 2.063.227 2.063.195 4.57l-.02 2.715-.05 2.84-.027 2.863A936 936 0 0 1 46 124c-1.875 1.063-1.875 1.063-4 2l-2-1v-2c-4.084.11-8.167.24-12.25.375-1.159.03-2.318.062-3.512.094l-3.379.117-3.11.095c-2.736.317-4.342 1.071-6.749 2.319l-2-1V80l-4-2C.384 72.724-.167 69.496-.203 62.633l-.017-2.519q-.015-2.64-.02-5.28c-.01-2.691-.041-5.382-.073-8.072l-.015-5.13-.038-2.436c.014-3.345.119-5.752 1.763-8.706 1.98-1.84 2.998-1.95 5.666-1.99L11 28c1.242-1.9 1.242-1.9 2-4 2.55-1.129 2.55-1.129 5-2l-.438-2.195C15.064 6.793 15.064 6.793 17.5 2.125 20.538-.458 22.141-.559 26-.566"/><path fill="#fbc7b6" d="m31.656 38.867 2.848-.004 2.996.012 2.996-.012 2.848.004 2.63.004C48 39 48 39 49 40c.243 4.06.229 8.124.24 12.19.01 2.038.04 4.074.072 6.11l.016 3.903.028 3.583C48.964 69.328 48.15 71.184 46 74l-2.66 1.309L41 77c-.437 2.91-.568 5.175-.438 8.063l.018 2.22C40.567 91.61 40.567 91.61 43 95l1 7 2 2c.227 2.063.227 2.063.195 4.57l-.02 2.715-.05 2.84-.027 2.863A936 936 0 0 1 46 124c-1.875 1.063-1.875 1.063-4 2l-2-1v-2H14l-.043-9.957c-.03-3.177-.07-6.354-.11-9.532q-.034-3.315-.043-6.631c-.009-3.176-.05-6.35-.097-9.525l.012-3.002c-.054-2.55-.138-4.869-.719-7.353-2.292-2.124-2.292-2.124-5-3-3.997-4.535-3.345-9.605-3.188-15.313l.042-2.822Q4.907 52.432 5 49c11.5-1.33 22.465-.93 34 0v4c-1.46 1.344-1.46 1.344-3.375 2.5-3.768 2.482-3.768 2.482-5.625 6.5-.167 3.167-.167 3.167 0 6h3l.688-3.25C35.147 60.58 36.33 59.327 40 57l3-1V44H27l-1-4c1.622-1.622 3.42-1.13 5.656-1.133"/><path fill="#eaaf9c" d="m45 6 5 1c-1.61 9.224-4.281 18.056-7 27h-6c1.432-9.618 4.394-18.985 8-28"/><path fill="#e9ae9b" d="M23 5c2.063.438 2.063.438 4 1 .84 3.915 1.67 7.832 2.5 11.75l.723 3.367.683 3.242.635 2.984C32 30 32 30 32 34h-6c-.675-3.54-1.339-7.082-2-10.625l-.578-3.027C21.628 10.67 21.628 10.67 22 6Z"/><path fill="#050403" d="m42 102 4 2v20l-4 2-2-1c-.058-3.458-.094-6.916-.125-10.375l-.05-2.984-.02-2.852-.032-2.634C40 104 40 104 42 102"/><path fill="#f4b6a3" d="m17 28 4 1v14l-5 1q-.04-3.719-.063-7.438l-.025-2.142c-.009-1.807.036-3.614.088-5.42Z"/><path fill="#dfa795" d="M6 34q2.514.428 5 1v8a88 88 0 0 1-5 1c-1-1-1-1-1.133-2.813L4.875 39l-.008-2.188C5 35 5 35 6 34"/></svg>