<svg xmlns="http://www.w3.org/2000/svg" width="363" height="362" fill="none" viewBox="0 0 363 362"><path fill="#6cb46c" stroke="#000" stroke-width="10" d="m206.486 62.122 1.561.85 1.748-.326 110.878-20.701-20.701 110.878-.326 1.748.85 1.561 53.951 99.055-111.848 14.575-1.764.23-1.221 1.291-77.536 81.919-48.424-101.869-.763-1.605-1.606-.764-101.87-48.426 81.92-77.534 1.291-1.222.23-1.763L107.43 8.17Z"/><path fill="#fff" d="M122.552 194q-1.65 0-2.805-1.155t-1.155-2.805v-30.635q0-1.595 1.155-2.75t2.805-1.155h12.485q1.65 0 2.805 1.155t1.155 2.75v8.58l-5.115-1.155v-4.29q0-.825-.605-1.375a1.78 1.78 0 0 0-1.375-.605h-6.215q-.825 0-1.43.605-.55.55-.55 1.375v24.365q0 .825.55 1.43.605.55 1.43.55h6.215q.825 0 1.375-.55.605-.605.605-1.43v-5.335h-5.06l1.155-5.115h9.02v13.585q0 1.65-1.155 2.805T135.037 194Zm28.826 0q-1.65 0-2.86-1.155-1.155-1.155-1.155-2.86v-8.305q0-1.65 1.155-2.805 1.21-1.21 2.86-1.21h4.29q.88 0 1.43-.55.605-.605.605-1.43v-2.035q0-.825-.605-1.375-.55-.605-1.43-.605h-5.94l1.155-5.17h7.975q1.65 0 2.805 1.21 1.21 1.155 1.21 2.805V194Zm3.135-5.17h3.19v-5.995h-3.19q-.825 0-1.43.605-.55.55-.55 1.375v2.035q0 .825.55 1.43.605.55 1.43.55m14.095 5.17v-27.5h11.495q1.594 0 2.805 1.155t1.21 2.805V194h-5.17v-20.35q0-.88-.605-1.43-.606-.55-1.375-.55h-3.19V194Zm25.223 0q-1.65 0-2.86-1.155-1.155-1.155-1.155-2.86v-8.305q0-1.65 1.155-2.805 1.21-1.21 2.86-1.21h4.29q.88 0 1.43-.55.606-.605.605-1.43v-2.035a1.78 1.78 0 0 0-.605-1.375q-.55-.605-1.43-.605h-5.94l1.155-5.17h7.975q1.65 0 2.805 1.21 1.21 1.155 1.21 2.805V194Zm3.135-5.17h3.19v-5.995h-3.19q-.825 0-1.43.605-.55.55-.55 1.375v2.035q0 .825.55 1.43.606.55 1.43.55m18.413 5.17q-1.65 0-2.805-1.155-1.155-1.21-1.155-2.86v-4.565h5.115v1.43q0 .825.605 1.43.605.55 1.43.55h1.155q.825 0 1.375-.55.605-.605.605-1.43v-2.035q0-.825-.605-1.375a1.78 1.78 0 0 0-1.375-.605h-4.345q-1.65 0-2.805-1.155-1.155-1.21-1.155-2.86v-8.305q0-1.65 1.155-2.805 1.155-1.21 2.805-1.21h7.535q1.65 0 2.805 1.21 1.155 1.155 1.155 2.805v4.565h-5.17v-1.43q0-.825-.605-1.375a1.78 1.78 0 0 0-1.375-.605h-1.155q-.825 0-1.43.605a1.78 1.78 0 0 0-.605 1.375v2.035q0 .825.605 1.43.605.55 1.43.55h4.345q1.65 0 2.805 1.21 1.155 1.155 1.155 2.805v8.525q-.055 1.54-1.21 2.695a3.85 3.85 0 0 1-2.75 1.1Zm17.589 0v-40.04l5.17-1.155V166.5h6.545l-1.21 5.17h-5.335V194Zm20.139 0q-1.65 0-2.86-1.155-1.155-1.21-1.155-2.86V170.46q0-1.65 1.155-2.805 1.21-1.155 2.86-1.155h7.48q1.705 0 2.86 1.155t1.155 2.805v8.36q0 1.65-1.155 2.86-1.155 1.155-2.86 1.155h-6.325v4.015q0 .825.55 1.43.604.55 1.485.55h7.15l1.155 5.17Zm1.155-16.335h3.19q.825 0 1.375-.55.605-.605.605-1.43v-2.035q0-.825-.605-1.375a1.78 1.78 0 0 0-1.375-.605h-1.155a2.02 2.02 0 0 0-1.485.605q-.55.55-.55 1.375Z"/></svg>