<?xml version="1.0" encoding="UTF-8"?>
<svg version="1.1" xmlns="http://www.w3.org/2000/svg" width="68" height="129">
<path d="M0 0 C2.9375 2.375 2.9375 2.375 5 5 C5 5.66 5 6.32 5 7 C6.0725 7.061875 7.145 7.12375 8.25 7.1875 C12 8 12 8 14.19628906 10.13745117 C16.34965453 13.55491329 16.53604275 15.59834044 16.609375 19.61328125 C16.64160156 20.86044922 16.67382812 22.10761719 16.70703125 23.39257812 C16.72121094 24.68615234 16.73539063 25.97972656 16.75 27.3125 C16.77964844 28.62541016 16.80929688 29.93832031 16.83984375 31.29101562 C16.91045589 34.52740535 16.96319877 37.76307811 17 41 C17.433125 40.05125 17.86625 39.1025 18.3125 38.125 C20 35 20 35 23 33 C26.55025388 32.67724965 29.09708604 32.59606481 32.375 34.0625 C34.78299884 36.93357554 34.77059927 39.29511877 35 43 C33.98364258 46.36157227 33.98364258 46.36157227 32.39453125 49.81640625 C31.97381599 50.74573219 31.97381599 50.74573219 31.54460144 51.6938324 C30.95143968 52.99579349 30.35007521 54.2940457 29.7409668 55.58862305 C28.81678216 57.55339633 27.91714045 59.52794196 27.02148438 61.50585938 C20.44048966 75.86140015 20.44048966 75.86140015 16.40307617 79.39938354 C14.58123985 81.47771775 14.60685146 82.64176833 14.56762695 85.37963867 C14.54783279 86.26032516 14.52803864 87.14101166 14.50764465 88.04838562 C14.49805977 89.46882927 14.49805977 89.46882927 14.48828125 90.91796875 C14.47033005 91.89034988 14.45237885 92.86273102 14.43388367 93.86457825 C14.37967533 96.97217464 14.34585102 100.07961652 14.3125 103.1875 C14.27933624 105.29364134 14.24484747 107.39976227 14.20898438 109.50585938 C14.12394269 114.67046161 14.05718159 119.83501719 14 125 C12.125 126.0625 12.125 126.0625 10 127 C9.01 126.505 9.01 126.505 8 126 C8 125.34 8 124.68 8 124 C-0.25 124 -8.5 124 -17 124 C-17.66 125.32 -18.32 126.64 -19 128 C-20.32 127.67 -21.64 127.34 -23 127 C-22.99920441 126.43481155 -22.99840881 125.86962311 -22.99758911 125.28730774 C-22.99514903 119.39809645 -23.03436821 113.51020198 -23.09765625 107.62133789 C-23.11581093 105.42446004 -23.12338573 103.22746801 -23.12011719 101.03051758 C-23.11725867 97.86970776 -23.1525895 94.71126337 -23.1953125 91.55078125 C-23.18621857 90.57039383 -23.17712463 89.59000641 -23.16775513 88.57991028 C-23.16482804 83.59827686 -23.16482804 83.59827686 -25.34117126 79.30033875 C-27.13297919 77.76156987 -27.13297919 77.76156987 -30 76 C-32.63076401 72.4646753 -32.26411579 68.55056266 -32.1875 64.3125 C-32.18685547 63.62349609 -32.18621094 62.93449219 -32.18554688 62.22460938 C-32.14055525 57.14055525 -32.14055525 57.14055525 -31 56 C-30.63239269 53.67182036 -30.29758419 51.3381615 -30 49 C-30.66 49 -31.32 49 -32 49 C-32.11614929 44.9169058 -32.18723457 40.83423623 -32.25 36.75 C-32.28351562 35.59113281 -32.31703125 34.43226562 -32.3515625 33.23828125 C-32.36445312 32.12324219 -32.37734375 31.00820313 -32.390625 29.859375 C-32.41157227 28.83295898 -32.43251953 27.80654297 -32.45410156 26.74902344 C-31.87925203 23.26902035 -30.7819009 22.10606483 -28 20 C-24.75 19.75 -24.75 19.75 -22 20 C-22.12375 18.4221875 -22.12375 18.4221875 -22.25 16.8125 C-22 13 -22 13 -20.4375 10.125 C-17.33802764 7.4228959 -15.04152406 7.23316485 -11 7 C-10.896875 6.401875 -10.79375 5.80375 -10.6875 5.1875 C-8.92352147 -0.42515895 -5.53640736 -0.76364239 0 0 Z " fill="#FBC7B6" transform="translate(33,0)"/>
<path d="M0 0 C2.9375 2.375 2.9375 2.375 5 5 C5 5.66 5 6.32 5 7 C6.0725 7.061875 7.145 7.12375 8.25 7.1875 C12 8 12 8 14.19628906 10.13745117 C16.34965453 13.55491329 16.53604275 15.59834044 16.609375 19.61328125 C16.64160156 20.86044922 16.67382812 22.10761719 16.70703125 23.39257812 C16.72121094 24.68615234 16.73539063 25.97972656 16.75 27.3125 C16.77964844 28.62541016 16.80929688 29.93832031 16.83984375 31.29101562 C16.91045589 34.52740535 16.96319877 37.76307811 17 41 C17.433125 40.05125 17.86625 39.1025 18.3125 38.125 C20 35 20 35 23 33 C26.55025388 32.67724965 29.09708604 32.59606481 32.375 34.0625 C34.78299884 36.93357554 34.77059927 39.29511877 35 43 C33.98364258 46.36157227 33.98364258 46.36157227 32.39453125 49.81640625 C31.97381599 50.74573219 31.97381599 50.74573219 31.54460144 51.6938324 C30.95143968 52.99579349 30.35007521 54.2940457 29.7409668 55.58862305 C28.81678216 57.55339633 27.91714045 59.52794196 27.02148438 61.50585938 C20.44048966 75.86140015 20.44048966 75.86140015 16.40307617 79.39938354 C14.58123985 81.47771775 14.60685146 82.64176833 14.56762695 85.37963867 C14.54783279 86.26032516 14.52803864 87.14101166 14.50764465 88.04838562 C14.49805977 89.46882927 14.49805977 89.46882927 14.48828125 90.91796875 C14.47033005 91.89034988 14.45237885 92.86273102 14.43388367 93.86457825 C14.37967533 96.97217464 14.34585102 100.07961652 14.3125 103.1875 C14.27933624 105.29364134 14.24484747 107.39976227 14.20898438 109.50585938 C14.12394269 114.67046161 14.05718159 119.83501719 14 125 C12.125 126.0625 12.125 126.0625 10 127 C9.01 126.505 9.01 126.505 8 126 C7.8222084 119.27432876 7.69980099 112.54926519 7.61547852 105.82177734 C7.58032108 103.53443762 7.53258483 101.2472547 7.47192383 98.96044922 C7.38680088 95.66855173 7.34726379 92.37873638 7.31640625 89.0859375 C7.28027725 88.06696381 7.24414825 87.04799011 7.20692444 85.99813843 C7.20304968 78.95870524 7.20304968 78.95870524 9.48094177 76.21847534 C10.70552367 75.22951837 11.96113656 74.27777427 13.24452209 73.36642456 C16.05447436 71.17922085 17.11814295 68.42360242 18.52734375 65.2109375 C18.8059877 64.58522858 19.08463165 63.95951965 19.37171936 63.31484985 C19.95044234 62.00595931 20.52058313 60.69324205 21.08227539 59.37695312 C21.94201033 57.364442 22.82883489 55.36563753 23.72070312 53.3671875 C26.92899554 46.45162369 26.92899554 46.45162369 28 39 C27.01 39 26.02 39 25 39 C24.76289307 39.54003662 24.52578613 40.08007324 24.28149414 40.63647461 C23.21090074 43.07121544 22.13674971 45.50437032 21.0625 47.9375 C20.68931641 48.78763672 20.31613281 49.63777344 19.93164062 50.51367188 C19.57392578 51.32255859 19.21621094 52.13144531 18.84765625 52.96484375 C18.3527771 54.08814087 18.3527771 54.08814087 17.84790039 55.23413086 C17 57 17 57 16 58 C13.48836585 58.45461478 10.97048 58.83525003 8.4453125 59.20703125 C5.40996843 60.19133612 4.59918324 61.28487581 3 64 C2.27648573 65.98014432 1.59734611 67.97821315 1 70 C-0.32 69.67 -1.64 69.34 -3 69 C-3.50657287 63.68098483 -2.32610043 61.13515188 1 57 C5.21052632 53 5.21052632 53 10 53 C10 39.8 10 26.6 10 13 C8.68 13.33 7.36 13.66 6 14 C5.67 22.91 5.34 31.82 5 41 C2.525 41.495 2.525 41.495 0 42 C-0.33 30.45 -0.66 18.9 -1 7 C-3.475 6.505 -3.475 6.505 -6 6 C-6 17.88 -6 29.76 -6 42 C-7.65 41.67 -9.3 41.34 -11 41 C-11.33 32.09 -11.66 23.18 -12 14 C-12.99 14 -13.98 14 -15 14 C-15.33 24.89 -15.66 35.78 -16 47 C-18.475 47.495 -18.475 47.495 -21 48 C-22.17469444 45.65061112 -22.20034889 44.04926795 -22.31640625 41.4296875 C-22.35830078 40.53378906 -22.40019531 39.63789062 -22.44335938 38.71484375 C-22.48267578 37.77769531 -22.52199219 36.84054688 -22.5625 35.875 C-22.60568359 34.93011719 -22.64886719 33.98523437 -22.69335938 33.01171875 C-22.79959072 30.67462908 -22.90163176 28.3374317 -23 26 C-23.99 26 -24.98 26 -26 26 C-26.33 33.26 -26.66 40.52 -27 48 C-29.475 48.495 -29.475 48.495 -32 49 C-32.11614929 44.9169058 -32.18723457 40.83423623 -32.25 36.75 C-32.28351562 35.59113281 -32.31703125 34.43226562 -32.3515625 33.23828125 C-32.36445312 32.12324219 -32.37734375 31.00820313 -32.390625 29.859375 C-32.41157227 28.83295898 -32.43251953 27.80654297 -32.45410156 26.74902344 C-31.87925203 23.26902035 -30.7819009 22.10606483 -28 20 C-24.75 19.75 -24.75 19.75 -22 20 C-22.12375 18.4221875 -22.12375 18.4221875 -22.25 16.8125 C-22 13 -22 13 -20.4375 10.125 C-17.33802764 7.4228959 -15.04152406 7.23316485 -11 7 C-10.896875 6.401875 -10.79375 5.80375 -10.6875 5.1875 C-8.92352147 -0.42515895 -5.53640736 -0.76364239 0 0 Z " fill="#080606" transform="translate(33,0)"/>
<path d="M0 0 C1.96875 0.671875 1.96875 0.671875 4 2 C4.46875 4.390625 4.46875 4.390625 4.5 7.25 C4.78181433 12.25056584 5.55783081 15.16444004 9 19 C10.32 19.66 11.64 20.32 13 21 C13.33 37.17 13.66 53.34 14 70 C12.02 70.99 12.02 70.99 10 72 C9.34 71.67 8.68 71.34 8 71 C8.00079559 70.43481155 8.00159119 69.86962311 8.00241089 69.28730774 C8.00485097 63.39809645 7.96563179 57.51020198 7.90234375 51.62133789 C7.88418907 49.42446004 7.87661427 47.22746801 7.87988281 45.03051758 C7.88274133 41.86970776 7.8474105 38.71126337 7.8046875 35.55078125 C7.81378143 34.57039383 7.82287537 33.59000641 7.83224487 32.57991028 C7.83517196 27.59827686 7.83517196 27.59827686 5.65882874 23.30033875 C3.86702081 21.76156987 3.86702081 21.76156987 1 20 C-1.63076401 16.4646753 -1.26411579 12.55056266 -1.1875 8.3125 C-1.18685547 7.62349609 -1.18621094 6.93449219 -1.18554688 6.22460938 C-1.14055525 1.14055525 -1.14055525 1.14055525 0 0 Z " fill="#010000" transform="translate(2,56)"/>
</svg>
