<?xml version="1.0" encoding="UTF-8"?>
<svg version="1.1" xmlns="http://www.w3.org/2000/svg" width="56" height="125">
<path d="M0 0 C1.27939453 -0.00257812 2.55878906 -0.00515625 3.87695312 -0.0078125 C14.44831996 0.10317298 14.44831996 0.10317298 17.9375 3.5 C18.7414548 6.19530999 18.75169502 8.66647402 18.9375 11.5 C19.72125 11.7475 20.505 11.995 21.3125 12.25 C24.42286637 13.73112684 24.77178087 14.33694901 25.9375 17.5 C26.3979965 22.2380833 26.3078306 26.99187985 26.3125 31.75 C26.33699219 33.04808594 26.36148438 34.34617188 26.38671875 35.68359375 C26.4117326 43.86312147 26.04291654 49.8676354 20.42724609 56.20410156 C18.9375 57.5 18.9375 57.5 16.9375 57.5 C16.95224869 58.30988373 16.96699738 59.11976746 16.98219299 59.95419312 C17.12008881 67.57645347 17.25306059 75.1987761 17.3804636 82.82121849 C17.44614169 86.74024144 17.51374182 90.65921181 17.58569336 94.578125 C17.65502495 98.35815481 17.71936151 102.13823929 17.78019524 105.91841507 C17.80432165 107.36257656 17.83026585 108.80670884 17.85803413 110.2508049 C17.89653822 112.26916865 17.92805405 114.28766208 17.95922852 116.30615234 C17.97921402 117.45642914 17.99919952 118.60670593 18.01979065 119.7918396 C17.9375 122.5 17.9375 122.5 16.9375 124.5 C5.3875 124.5 -6.1625 124.5 -18.0625 124.5 C-19.54970979 119.29476573 -20.31075656 116.43669868 -20.30200195 111.3527832 C-20.30573318 110.18499832 -20.30946442 109.01721344 -20.31330872 107.81404114 C-20.30917465 106.57216537 -20.30504059 105.33028961 -20.30078125 104.05078125 C-20.31225117 102.07973222 -20.32374993 100.10868284 -20.33697033 98.13764477 C-20.36708683 93.30000007 -20.37779974 88.46248018 -20.36791992 83.62475586 C-20.36320135 80.90016286 -20.37161003 78.17620781 -20.39433289 75.45170593 C-20.4149773 72.89092692 -20.41579584 70.32989584 -20.39485168 67.76911926 C-20.4080394 66.61079086 -20.42122711 65.45246246 -20.43481445 64.2590332 C-20.43544388 63.24090042 -20.4360733 62.22276764 -20.4367218 61.17378235 C-21.28657248 57.5425984 -23.07641475 56.59992387 -26.0625 54.5 C-29.29607701 49.60519656 -29.51723348 45.41437924 -29.49609375 39.7421875 C-29.5013356 38.91671417 -29.50657745 38.09124084 -29.51197815 37.24075317 C-29.51837431 35.50442628 -29.51709265 33.76805592 -29.50854492 32.03173828 C-29.50000273 29.3758475 -29.52887903 26.72208667 -29.56054688 24.06640625 C-29.56215831 22.37500064 -29.56158246 20.68359123 -29.55859375 18.9921875 C-29.56982773 18.20045135 -29.58106171 17.40871521 -29.59263611 16.59298706 C-29.54735075 13.01532257 -29.36832536 10.91442226 -27.21508789 7.99658203 C-25.0625 6.5 -25.0625 6.5 -22.125 6.0625 C-18.86009609 5.82730948 -18.86009609 5.82730948 -17.25 2.99609375 C-12.94005117 -1.52874662 -5.73657778 -0.12754392 0 0 Z " fill="#FCC7B6" transform="translate(30.0625,-0.5)"/>
<path d="M0 0 C1.27939453 -0.00257812 2.55878906 -0.00515625 3.87695312 -0.0078125 C14.44831996 0.10317298 14.44831996 0.10317298 17.9375 3.5 C18.7414548 6.19530999 18.75169502 8.66647402 18.9375 11.5 C19.72125 11.7475 20.505 11.995 21.3125 12.25 C24.42286637 13.73112684 24.77178087 14.33694901 25.9375 17.5 C26.3979965 22.2380833 26.3078306 26.99187985 26.3125 31.75 C26.33699219 33.04808594 26.36148438 34.34617188 26.38671875 35.68359375 C26.4117326 43.86312147 26.04291654 49.8676354 20.42724609 56.20410156 C18.9375 57.5 18.9375 57.5 16.9375 57.5 C16.95224869 58.30988373 16.96699738 59.11976746 16.98219299 59.95419312 C17.12008881 67.57645347 17.25306059 75.1987761 17.3804636 82.82121849 C17.44614169 86.74024144 17.51374182 90.65921181 17.58569336 94.578125 C17.65502495 98.35815481 17.71936151 102.13823929 17.78019524 105.91841507 C17.80432165 107.36257656 17.83026585 108.80670884 17.85803413 110.2508049 C17.89653822 112.26916865 17.92805405 114.28766208 17.95922852 116.30615234 C17.97921402 117.45642914 17.99919952 118.60670593 18.01979065 119.7918396 C17.9375 122.5 17.9375 122.5 16.9375 124.5 C15.2875 124.17 13.6375 123.84 11.9375 123.5 C11.63863798 111.64169535 11.3641306 99.78331654 11.12731934 87.92359924 C11.01179246 82.34170048 10.84543467 76.76619271 10.625 71.1875 C10.56176809 68.9791875 10.49919071 66.77085609 10.4375 64.5625 C10.35532227 63.09502319 10.35532227 63.09502319 10.27148438 61.59790039 C10.14863498 55.33656268 10.14863498 55.33656268 12.49609375 52.84716797 C14.40625 51.49609375 14.40625 51.49609375 16.32617188 50.43530273 C18.12094665 49.59064676 18.12094665 49.59064676 18.9375 47.5 C19.02323394 45.24879258 19.04462188 42.99500697 19.03515625 40.7421875 C19.0337413 40.07913605 19.03232635 39.41608459 19.03086853 38.73294067 C19.02526754 36.61358137 19.012715 34.49432741 19 32.375 C18.99498512 30.93880361 18.99042219 29.50260556 18.98632812 28.06640625 C18.97614833 24.54419752 18.95657338 21.02221679 18.9375 17.5 C12.0075 17.5 5.0775 17.5 -2.0625 17.5 C-2.0625 18.49 -2.0625 19.48 -2.0625 20.5 C-1.00289062 20.54898437 0.05671875 20.59796875 1.1484375 20.6484375 C2.53648497 20.72346709 3.92450451 20.79901485 5.3125 20.875 C6.01117188 20.9059375 6.70984375 20.936875 7.4296875 20.96875 C12.7109375 21.2734375 12.7109375 21.2734375 14.9375 23.5 C15.69372336 26.94639497 15.74003846 30.0613087 14.9375 33.5 C13.08649426 35.41972057 11.18233107 36.65208665 8.91796875 38.05078125 C5.78794259 40.34119487 5.09754739 42.8748519 3.9375 46.5 C2.6175 46.17 1.2975 45.84 -0.0625 45.5 C-0.68513965 40.3943549 0.59919167 37.95107777 3.55078125 34.015625 C4.9375 32.5 4.9375 32.5 7.9375 30.5 C8.4325 29.015 8.4325 29.015 8.9375 27.5 C8.20144531 27.51160156 7.46539062 27.52320312 6.70703125 27.53515625 C5.24330078 27.54869141 5.24330078 27.54869141 3.75 27.5625 C2.30560547 27.57990234 2.30560547 27.57990234 0.83203125 27.59765625 C-2.0625 27.5 -2.0625 27.5 -4.734375 26.96484375 C-7.70450912 26.37181362 -10.09496242 26.99488722 -13.0625 27.5 C-14.40311543 27.19728039 -15.73655895 26.86162029 -17.0625 26.5 C-19.39572384 26.47739611 -21.72929354 26.4756676 -24.0625 26.5 C-23.98124075 29.73016726 -23.86843395 32.95849888 -23.75 36.1875 C-23.72744141 37.09951172 -23.70488281 38.01152344 -23.68164062 38.95117188 C-23.44383496 45.74412744 -23.44383496 45.74412744 -20.0625 51.5 C-19.21768066 51.839104 -18.37286133 52.17820801 -17.50244141 52.52758789 C-15.0625 54.5 -15.0625 54.5 -14.56407166 56.39320374 C-14.33466588 58.97192001 -14.26920824 61.51255616 -14.25390625 64.1015625 C-14.22970108 65.07235748 -14.20549591 66.04315247 -14.18055725 67.04336548 C-14.11190712 70.19587619 -14.08292379 73.3468296 -14.0625 76.5 C-14.05176453 77.54103882 -14.04102905 78.58207764 -14.02996826 79.65466309 C-13.95832804 87.06188899 -13.97011779 94.46759569 -14 101.875 C-14.00503446 104.08723855 -14.00959386 106.29947823 -14.01367188 108.51171875 C-14.02450171 113.8411713 -14.04107974 119.17058001 -14.0625 124.5 C-15.7125 124.17 -17.3625 123.84 -19.0625 123.5 C-19.82501534 119.43600978 -20.18660468 115.5988992 -20.18847656 111.46630859 C-20.19228333 110.29844818 -20.19609009 109.13058777 -20.20001221 107.92733765 C-20.20103943 106.6803006 -20.20206665 105.43326355 -20.203125 104.1484375 C-20.22143938 101.49737891 -20.24100528 98.84635117 -20.26171875 96.1953125 C-20.29212133 92.0233759 -20.31481115 87.85174547 -20.31298828 83.6796875 C-20.31235394 80.95087034 -20.32476145 78.22273073 -20.35198975 75.49404907 C-20.37736004 72.92774147 -20.38370397 70.36116132 -20.36920166 67.79476929 C-20.38561707 66.6332132 -20.40203247 65.4716571 -20.41894531 64.27490234 C-20.42259094 63.25375336 -20.42623657 62.23260437 -20.42999268 61.18051147 C-21.28734603 57.54712192 -23.07266792 56.60221653 -26.0625 54.5 C-29.29607701 49.60519656 -29.51723348 45.41437924 -29.49609375 39.7421875 C-29.5013356 38.91671417 -29.50657745 38.09124084 -29.51197815 37.24075317 C-29.51837431 35.50442628 -29.51709265 33.76805592 -29.50854492 32.03173828 C-29.50000273 29.3758475 -29.52887903 26.72208667 -29.56054688 24.06640625 C-29.56215831 22.37500064 -29.56158246 20.68359123 -29.55859375 18.9921875 C-29.56982773 18.20045135 -29.58106171 17.40871521 -29.59263611 16.59298706 C-29.54735075 13.01532257 -29.36832536 10.91442226 -27.21508789 7.99658203 C-25.0625 6.5 -25.0625 6.5 -22.125 6.0625 C-18.86009609 5.82730948 -18.86009609 5.82730948 -17.25 2.99609375 C-12.94005117 -1.52874662 -5.73657778 -0.12754392 0 0 Z " fill="#080605" transform="translate(30.0625,-0.5)"/>
<path d="M0 0 C1.98 0.495 1.98 0.495 4 1 C4 5.95 4 10.9 4 16 C2.35 16 0.7 16 -1 16 C-1.02685095 13.52076199 -1.04676547 11.0418116 -1.0625 8.5625 C-1.07506836 7.50192383 -1.07506836 7.50192383 -1.08789062 6.41992188 C-1.09653588 4.61306441 -1.05220011 2.80612397 -1 1 C-0.67 0.67 -0.34 0.34 0 0 Z " fill="#F1B4A1" transform="translate(18,5)"/>
<path d="M0 0 C1.98 0.495 1.98 0.495 4 1 C4 3.97 4 6.94 4 10 C2.35 9.67 0.7 9.34 -1 9 C-1.09765625 2.84765625 -1.09765625 2.84765625 -1 1 C-0.67 0.67 -0.34 0.34 0 0 Z " fill="#F3B6A2" transform="translate(7,11)"/>
<path d="M0 0 C1.32 0.66 2.64 1.32 4 2 C4 3.32 4 4.64 4 6 C2.02 6 0.04 6 -2 6 C-1.125 1.125 -1.125 1.125 0 0 Z " fill="#E2A997" transform="translate(29,5)"/>
<path d="M0 0 C2.0625 0.4375 2.0625 0.4375 4 1 C4 2.65 4 4.3 4 6 C2.35 6 0.7 6 -1 6 C-1.042721 4.33388095 -1.04063832 2.66617115 -1 1 C-0.67 0.67 -0.34 0.34 0 0 Z " fill="#EBB09D" transform="translate(39,5)"/>
</svg>
