<?xml version="1.0" encoding="UTF-8"?>
<svg version="1.1" xmlns="http://www.w3.org/2000/svg" width="55" height="126">
<path d="M0 0 C2.95578005 0.83708615 4.11959355 2.15269125 6 4.56640625 C7.046875 7.80078125 7.046875 7.80078125 7.75 11.31640625 C7.99234375 12.486875 8.2346875 13.65734375 8.484375 14.86328125 C8.65453125 15.7553125 8.8246875 16.64734375 9 17.56640625 C9.47179688 16.10267578 9.47179688 16.10267578 9.953125 14.609375 C10.38471634 13.32398339 10.817047 12.03883986 11.25 10.75390625 C11.45496094 10.11130859 11.65992188 9.46871094 11.87109375 8.80664062 C13.20390768 4.90916957 14.31469571 2.54144311 18 0.56640625 C21.68818005 0.01710284 23.53248818 0.33265034 26.875 2.00390625 C29.43732665 5.09377074 29.3562701 7.03657051 29.26220703 10.95678711 C28.78767024 15.67962117 27.3967883 20.1082198 26 24.62890625 C25.57074219 26.07040039 25.57074219 26.07040039 25.1328125 27.54101562 C24.43272118 29.88632155 23.7216778 32.22767113 23 34.56640625 C23.61875 34.83453125 24.2375 35.10265625 24.875 35.37890625 C27 36.56640625 27 36.56640625 29 39.56640625 C29.38672444 43.63784114 29.32913889 47.7099492 29.31567383 51.79833984 C29.31253319 53.79530291 29.33678517 55.79224779 29.36132812 57.7890625 C29.36752171 70.01519469 29.36752171 70.01519469 26 75.56640625 C25.13375 76.26765625 24.2675 76.96890625 23.375 77.69140625 C19.99062356 81.78828299 20.3499384 85.51400575 20.23828125 90.703125 C20 93.56640625 20 93.56640625 18 95.56640625 C17.66666667 99.06640625 17.66666667 99.06640625 18 102.56640625 C18.99 103.55640625 18.99 103.55640625 20 104.56640625 C20.22705078 106.62939453 20.22705078 106.62939453 20.1953125 109.13671875 C20.18886719 110.03261719 20.18242188 110.92851563 20.17578125 111.8515625 C20.15902344 112.78871094 20.14226563 113.72585937 20.125 114.69140625 C20.11597656 115.63628906 20.10695312 116.58117187 20.09765625 117.5546875 C20.07404522 119.89217917 20.04111516 122.22916748 20 124.56640625 C18.125 125.62890625 18.125 125.62890625 16 126.56640625 C15.01 126.07140625 15.01 126.07140625 14 125.56640625 C14 124.90640625 14 124.24640625 14 123.56640625 C9.91611387 123.67632266 5.83314589 123.8069448 1.75 123.94140625 C0.59113281 123.97234375 -0.56773438 124.00328125 -1.76171875 124.03515625 C-2.87675781 124.07382813 -3.99179687 124.1125 -5.140625 124.15234375 C-6.68024902 124.1994751 -6.68024902 124.1994751 -8.25097656 124.24755859 C-10.98703623 124.56490264 -12.59276996 125.31868318 -15 126.56640625 C-15.66 126.23640625 -16.32 125.90640625 -17 125.56640625 C-17 110.71640625 -17 95.86640625 -17 80.56640625 C-18.32 79.90640625 -19.64 79.24640625 -21 78.56640625 C-25.61606837 73.29089954 -26.16704241 70.06217893 -26.203125 63.19921875 C-26.20882507 62.36808563 -26.21452515 61.53695251 -26.22039795 60.68063354 C-26.22985146 58.92040278 -26.23638332 57.16015428 -26.24023438 55.39990234 C-26.24993658 52.70899512 -26.28095456 50.01885277 -26.3125 47.328125 C-26.31903043 45.61849412 -26.32428075 43.90885778 -26.328125 42.19921875 C-26.3404718 41.39493439 -26.3528186 40.59065002 -26.36553955 39.76199341 C-26.35222724 36.41725352 -26.2472886 34.01068747 -24.6027832 31.05615234 C-22.62302607 29.2160186 -21.60548559 29.10630136 -18.9375 29.06640625 C-16.9884375 28.81890625 -16.9884375 28.81890625 -15 28.56640625 C-13.75825204 26.66628855 -13.75825204 26.66628855 -13 24.56640625 C-10.44921875 23.4375 -10.44921875 23.4375 -8 22.56640625 C-8.144375 21.84195312 -8.28875 21.1175 -8.4375 20.37109375 C-10.93567251 7.35977857 -10.93567251 7.35977857 -8.5 2.69140625 C-5.46162086 0.10878398 -3.85895726 0.00753703 0 0 Z " fill="#060404" transform="translate(26,-0.56640625)"/>
<path d="M0 0 C0.93972656 -0.00128906 1.87945312 -0.00257812 2.84765625 -0.00390625 C3.83636719 -0.00003906 4.82507813 0.00382812 5.84375 0.0078125 C7.32681641 0.00201172 7.32681641 0.00201172 8.83984375 -0.00390625 C10.24943359 -0.00197266 10.24943359 -0.00197266 11.6875 0 C12.55568359 0.00112793 13.42386719 0.00225586 14.31835938 0.00341797 C16.34375 0.1328125 16.34375 0.1328125 17.34375 1.1328125 C17.58639392 5.19305402 17.57229511 9.25684045 17.58398438 13.32373047 C17.59364548 15.360774 17.62463334 17.39678923 17.65625 19.43359375 C17.66398437 21.36525391 17.66398437 21.36525391 17.671875 23.3359375 C17.6812207 24.51833008 17.69056641 25.70072266 17.70019531 26.91894531 C17.30738148 30.46072698 16.49266334 32.31636845 14.34375 35.1328125 C13.46589844 35.56464844 12.58804688 35.99648437 11.68359375 36.44140625 C10.91144531 36.99957031 10.13929687 37.55773437 9.34375 38.1328125 C8.90700389 41.0434352 8.7760519 43.30797815 8.90625 46.1953125 C8.91205078 46.92814453 8.91785156 47.66097656 8.92382812 48.41601562 C8.91083397 52.74148276 8.91083397 52.74148276 11.34375 56.1328125 C11.67708333 58.46614583 12.01041667 60.79947917 12.34375 63.1328125 C13.33375 64.1228125 13.33375 64.1228125 14.34375 65.1328125 C14.57080078 67.19580078 14.57080078 67.19580078 14.5390625 69.703125 C14.53261719 70.59902344 14.52617188 71.49492188 14.51953125 72.41796875 C14.50277344 73.35511719 14.48601563 74.29226562 14.46875 75.2578125 C14.45972656 76.20269531 14.45070312 77.14757812 14.44140625 78.12109375 C14.41779522 80.45858542 14.38486516 82.79557373 14.34375 85.1328125 C12.46875 86.1953125 12.46875 86.1953125 10.34375 87.1328125 C9.35375 86.6378125 9.35375 86.6378125 8.34375 86.1328125 C8.34375 85.4728125 8.34375 84.8128125 8.34375 84.1328125 C-0.23625 84.1328125 -8.81625 84.1328125 -17.65625 84.1328125 C-17.67042969 80.84699219 -17.68460938 77.56117187 -17.69921875 74.17578125 C-17.72981977 70.99851136 -17.76891367 67.82145189 -17.80883789 64.64428711 C-17.83205542 62.43375066 -17.84642237 60.22310299 -17.85180664 58.01245117 C-17.86106861 54.83701978 -17.90199963 51.66334668 -17.94921875 48.48828125 C-17.9452861 47.49757126 -17.94135345 46.50686127 -17.93730164 45.48612976 C-17.99171668 42.93554158 -18.07495854 40.61700757 -18.65625 38.1328125 C-20.94819373 36.00842752 -20.94819373 36.00842752 -23.65625 35.1328125 C-27.65348956 30.59798324 -27.00106962 25.52819098 -26.84375 19.8203125 C-26.83021484 18.88896484 -26.81667969 17.95761719 -26.80273438 16.99804688 C-26.76751882 14.70903604 -26.71827099 12.42122792 -26.65625 10.1328125 C-15.15671012 8.80240248 -4.19116721 9.20204108 7.34375 10.1328125 C7.34375 11.4528125 7.34375 12.7728125 7.34375 14.1328125 C5.8828125 15.4765625 5.8828125 15.4765625 3.96875 16.6328125 C0.20121478 19.11483095 0.20121478 19.11483095 -1.65625 23.1328125 C-1.82349737 26.29977206 -1.82349737 26.29977206 -1.65625 29.1328125 C-0.66625 29.1328125 0.32375 29.1328125 1.34375 29.1328125 C1.570625 28.0603125 1.7975 26.9878125 2.03125 25.8828125 C3.49074348 21.71283113 4.67424555 20.45981532 8.34375 18.1328125 C9.33375 17.8028125 10.32375 17.4728125 11.34375 17.1328125 C11.34375 13.1728125 11.34375 9.2128125 11.34375 5.1328125 C6.06375 5.1328125 0.78375 5.1328125 -4.65625 5.1328125 C-4.98625 3.8128125 -5.31625 2.4928125 -5.65625 1.1328125 C-4.03424485 -0.48919265 -2.23601969 0.002905 0 0 Z " fill="#FBC7B6" transform="translate(31.65625,38.8671875)"/>
<path d="M0 0 C1.65 0.33 3.3 0.66 5 1 C3.38949895 10.22377877 0.71861481 19.05554976 -2 28 C-3.98 28 -5.96 28 -8 28 C-6.56757088 18.38226163 -3.60608872 9.01522181 0 0 Z " fill="#EAAF9C" transform="translate(45,6)"/>
<path d="M0 0 C2.0625 0.4375 2.0625 0.4375 4 1 C4.83988453 4.91529148 5.67076813 8.83243972 6.5 12.75 C6.85771484 14.41675781 6.85771484 14.41675781 7.22265625 16.1171875 C7.44824219 17.18710937 7.67382812 18.25703125 7.90625 19.359375 C8.22045898 20.83615723 8.22045898 20.83615723 8.54101562 22.34277344 C9 25 9 25 9 29 C7.02 29 5.04 29 3 29 C2.3245086 25.45995797 1.66119202 21.91773831 1 18.375 C0.80921875 17.37597656 0.6184375 16.37695312 0.421875 15.34765625 C-1.37244856 5.67112564 -1.37244856 5.67112564 -1 1 C-0.67 0.67 -0.34 0.34 0 0 Z " fill="#E9AE9B" transform="translate(23,5)"/>
<path d="M0 0 C1.32 0.66 2.64 1.32 4 2 C4 8.6 4 15.2 4 22 C2.02 22.99 2.02 22.99 0 24 C-0.66 23.67 -1.32 23.34 -2 23 C-2.05789006 19.54173658 -2.09355821 16.08359707 -2.125 12.625 C-2.14175781 11.64015625 -2.15851562 10.6553125 -2.17578125 9.640625 C-2.18222656 8.69960937 -2.18867187 7.75859375 -2.1953125 6.7890625 C-2.20578613 5.91975098 -2.21625977 5.05043945 -2.22705078 4.15478516 C-2 2 -2 2 0 0 Z " fill="#050403" transform="translate(42,102)"/>
<path d="M0 0 C1.98 0.495 1.98 0.495 4 1 C4 5.62 4 10.24 4 15 C2.35 15.33 0.7 15.66 -1 16 C-1.02685095 13.52076199 -1.04676547 11.0418116 -1.0625 8.5625 C-1.07506836 7.50192383 -1.07506836 7.50192383 -1.08789062 6.41992188 C-1.09653588 4.61306441 -1.05220011 2.80612397 -1 1 C-0.67 0.67 -0.34 0.34 0 0 Z " fill="#F4B6A3" transform="translate(17,28)"/>
<path d="M0 0 C1.67542976 0.28604898 3.34385343 0.61781233 5 1 C5 3.64 5 6.28 5 9 C3.34385343 9.38218767 1.67542976 9.71395102 0 10 C-1 9 -1 9 -1.1328125 7.1875 C-1.13023437 6.465625 -1.12765625 5.74375 -1.125 5 C-1.12757813 4.278125 -1.13015625 3.55625 -1.1328125 2.8125 C-1 1 -1 1 0 0 Z " fill="#DFA795" transform="translate(6,34)"/>
</svg>
